# xmcd
#
# Track frame offsets: 
#        150
#        18440
#        36747
#
# Disc length: 730 seconds
#
# Revision: 0
# Processed by: cddbd v1.5.2PL0 Copyright (c) Steve Scherf et al.
# Submitted via: ExactAudioCopyFreeDBPlugin 1.0
#
DISCID=2202d803
DTITLE=Lonestar - Amazed Single
DYEAR=1999
DGENRE=Country
TTITLE0=Amazed (Mainstream Mix)
TTITLE1=Amazed (Huff Mix)
TTITLE2=Amazed (Acoustic)
EXTD=
EXTT0=
EXTT1=
EXTT2=
PLAYORDER=
